<svg width="87" height="51" viewBox="0 0 87 51" fill="none" xmlns="http://www.w3.org/2000/svg">
<g clip-path="url(#clip0_520_399)">
<path d="M58.9012 18.7601C57.3634 18.7601 56.1593 19.3133 55.0567 20.4633V19.0222H52.0246V33.157H55.2888V24.9614C55.2888 23.0835 56.4059 21.9044 58.0888 21.9044C58.3935 21.9044 58.6691 21.9481 58.8577 21.9772L61.1209 18.993C60.2359 18.8329 59.4815 18.7601 58.9012 18.7601ZM87.0461 19.0222H83.2887L79.8068 23.6367L76.325 19.0222H72.5675L77.8773 26.1405L72.5675 33.157H76.412L79.7923 28.688L83.1726 33.157H87.0461L81.6928 26.1551L87.0461 19.0222ZM18.5118 15.8487C17.3947 17.3481 17.1336 17.843 16.06 17.843H0V37H6.29634C7.71809 37 9.09632 36.3158 9.98129 35.1658C11.1274 33.6373 11.287 33.1715 12.4041 33.1715H28.4931V14.0146H22.1532C20.7315 14.0146 19.3533 14.6987 18.5118 15.8487ZM23.5025 28.2222H16.7854C15.3201 28.2222 13.9854 28.8335 13.1004 30.0272C11.9543 31.5557 11.7222 32.0215 10.6486 32.0215H4.94712V22.8361H11.6642C13.1295 22.8361 14.4642 22.1519 15.3491 21.0019C16.4952 19.5025 16.8144 19.0513 17.8445 19.0513H23.488V28.2222H23.5025ZM47.6142 23.5057C49.036 22.7051 50.037 21.2785 50.037 19.4006C50.037 16.6494 47.9189 14 44.8578 14H35.6454V33.157H44.8433C48.18 33.157 50.4868 30.7842 50.4868 27.8C50.4868 26.0386 49.6888 24.5101 47.6142 23.5057ZM38.8951 16.9987H44.5821C46.0039 16.9987 46.8453 18.338 46.8453 19.5316C46.8453 20.9873 45.5832 21.9772 44.3935 21.9772H38.8951V16.9987ZM44.379 30.1728H38.8951V24.9614H44.5821C46.0474 24.9614 47.237 26.2278 47.237 27.5234C47.2225 28.9791 45.7282 30.1728 44.379 30.1728ZM69.3032 29.0956C68.7665 29.9399 67.7219 30.4348 66.5758 30.4348C64.7768 30.4348 63.268 29.212 63.268 27.3342H73.0172C73.1768 26.7665 73.2058 26.4899 73.2058 25.9949C73.2058 21.7006 70.5509 18.7601 66.5613 18.7601C62.6442 18.7601 59.8732 21.5551 59.8732 26.1114C59.8732 30.5513 62.5282 33.4335 66.6338 33.4335C69.5209 33.4335 72.0452 32.0215 72.7706 29.1101C72.7996 29.0956 69.3032 29.0956 69.3032 29.0956ZM66.5758 21.7443C68.3747 21.7443 69.7675 22.8943 69.724 24.612H63.3116C63.3116 22.938 64.7768 21.7443 66.5758 21.7443Z" fill="white"/>
</g>
<defs>
<clipPath id="clip0_520_399">
<rect width="87" height="50.5814" fill="white"/>
</clipPath>
</defs>
</svg>
