<svg width="39" height="50" viewBox="0 0 39 50" fill="none" xmlns="http://www.w3.org/2000/svg">
<g>
<path fill-rule="evenodd" clip-rule="evenodd" d="M6.11677 12.0128C7.36088 13.0236 7.8276 12.9465 10.1639 12.7906L32.1886 11.4681C32.6558 11.4681 32.2673 11.0021 32.1115 10.9247L28.4537 8.28034C27.7528 7.73619 26.8191 7.11303 25.0294 7.26892L3.70275 8.82441C2.92496 8.90153 2.76963 9.29042 3.07936 9.60212L6.11677 12.0128ZM7.4391 17.1457V40.3196C7.4391 41.5651 8.06147 42.031 9.46225 41.954L33.6675 40.5533C35.069 40.4763 35.2251 39.6197 35.2251 38.6079V15.5895C35.2251 14.5794 34.8365 14.0347 33.9786 14.1125L8.68392 15.5895C7.7504 15.668 7.43902 16.1349 7.43902 17.1457H7.4391ZM31.3345 18.3888C31.4896 19.0894 31.3345 19.7894 30.6325 19.8681L29.4663 20.1005V37.209C28.4537 37.7532 27.52 38.0643 26.7419 38.0643C25.4961 38.0643 25.1841 37.6752 24.251 36.5094L16.6223 24.5333V36.1205L19.0363 36.6652C19.0363 36.6652 19.0363 38.0643 17.0887 38.0643L11.7196 38.3758C11.5636 38.0643 11.7196 37.2873 12.2642 37.1317L13.6653 36.7433V21.4229L11.72 21.267C11.5639 20.5664 11.9525 19.5563 13.0429 19.4779L18.8028 19.0896L26.7419 31.2216V20.4893L24.7177 20.257C24.5623 19.4005 25.1841 18.7786 25.9625 18.7015L31.3345 18.3888ZM1.91213 6.72485L24.0952 5.09121C26.8194 4.85758 27.5203 5.0141 29.2324 6.25781L36.3136 11.2348C37.482 12.0907 37.8714 12.3237 37.8714 13.2566V40.5533C37.8714 42.2641 37.2482 43.2758 35.0694 43.4306L9.3081 44.9863C7.6725 45.0642 6.89408 44.8312 6.03753 43.7418L0.822881 36.976C-0.111422 35.7306 -0.5 34.7989 -0.5 33.7088V9.44568C-0.5 8.04671 0.123393 6.87971 1.91213 6.72485V6.72485Z" fill="white"/>
</g>
</svg>
