<svg width="170" height="50" viewBox="0 0 170 50" fill="none" xmlns="http://www.w3.org/2000/svg">
<path fill-rule="evenodd" clip-rule="evenodd" d="M0 17V33L13.7778 41L27.5556 33V17L13.7778 9L0 17ZM13.7779 17L7.11127 21V29L13.7779 33L20.4446 29V21L13.7779 17Z" fill="white"/>
<path d="M9.77783 22.3316L13.7778 20.1094L17.7778 22.3316V27.6649L13.7778 29.8872L9.77783 27.6649V22.3316Z" fill="white"/>
<path d="M55.2574 24.5773V32H60.8102H66V30.9466V29.5H62.2147H58V27.6803V25.5H61.7248H65V24.414V23H61.6268H58V21.3763V19.5H62.2147H66V18.208V17H60.8102H55.2574V24.5773Z" fill="white"/>
<path d="M73.3855 17.6863C67.8001 20.2667 67.5061 28.3018 72.8629 31.2415C75.4433 32.6134 78.7422 32.4174 81.29 30.6862C82.5638 29.837 82.5965 29.6083 81.6819 28.6284L80.9633 27.8772L79.8854 28.7264C78.5463 29.7063 76.2598 30.0656 74.8553 29.4777C72.5689 28.5305 71.2297 25.5908 71.9483 23.043C72.3729 21.5079 73.9734 19.842 75.3779 19.4827C76.6845 19.1561 78.6442 19.5481 79.7875 20.3646L80.8327 21.1159L81.6166 20.2013C82.5312 19.1234 82.3352 18.7315 80.2774 17.7516C78.4809 16.8697 75.2146 16.837 73.3855 17.6863Z" fill="white"/>
<path d="M85.3729 22.5195C85.5035 28.9215 86 29.5 88.0839 31.2733C89.1292 31.8939 89.9131 32 91.4809 32C93.898 32 95.3352 31.5346 96.511 30.1627C97.5 28.5 98.0462 27.223 98.0462 21.8663V17H96.7724H95.4658L95.3678 22.2582C95.2698 26.9617 95.2045 27.5497 94.5839 28.3989C93.1467 30.2934 90.0111 30.1954 88.6719 28.2029C87.9859 27.1577 87.9206 26.7657 87.9206 22.0949V17H86.5814H85.2749L85.3729 22.5195Z" fill="white"/>
<path d="M102.292 24.5793V31.9995H103.533H105V29.3808V27H106.538H108.106L109.935 29.4787L111.764 32H113.267H114.769L114.182 31.2099C113.855 30.6873 112.973 29.4134 112.222 28.3682L110.817 26.4411L111.862 25.8858C114.116 24.6772 114.867 22.3582 113.79 19.9411C112.842 17.7526 111.601 17.1307 106.473 17L102.292 17.0014V24.5793ZM111.079 20.529C111.5 21.5 111.803 22.1622 110.981 23.5014C110.262 24.318 109.968 24.402 107.551 24.5H105V22.1622V19.6798H107.649C110.229 19.6798 110.458 19.7451 111.079 20.529Z" fill="white"/>
<path d="M40.2921 24.5793V31.9995H41.5333H43V29.3808V27H44.5383H46.1062L47.9353 29.4787L49.7644 32H51.267H52.7695L52.1815 31.2099C51.8549 30.6873 50.973 29.4134 50.2217 28.3682L48.8172 26.4411L49.8624 25.8858C52.1162 24.6772 52.8675 22.3582 51.7896 19.9411C50.8423 17.7526 49.6011 17.1307 44.473 17L40.2921 17.0014V24.5793ZM49.0785 20.529C49.5 21.5 49.8026 22.1622 48.9805 23.5014C48.2619 24.318 47.968 24.402 45.5509 24.5H43V22.1622V19.6798H45.6489C48.2293 19.6798 48.4579 19.7451 49.0785 20.529Z" fill="white"/>
<path d="M119.702 17.5562C118.428 18.1115 117.317 19.81 117.317 21.2145C117.317 23.5989 118.624 24.8075 122.217 25.722C124.601 26.3426 125.483 26.9632 125.483 28.0084C125.483 29.9029 122.478 30.4255 119.767 28.9557C118.199 28.1391 118.199 28.1391 117.546 28.7924C116.631 29.6743 117.023 30.3602 119.016 31.2748C122.086 32.712 125.842 32.2547 127.377 30.2949C128.259 29.1843 128.357 26.7346 127.573 25.624C126.953 24.7095 125.189 23.8276 123.033 23.3049C120.878 22.7823 119.93 22.1291 119.93 21.1818C119.93 19.3854 122.576 18.7648 124.993 20.006L126.3 20.6919L127.018 19.7773L127.769 18.8627L127.051 18.3401C125.385 17.0663 121.694 16.6743 119.702 17.5562Z" fill="white"/>
<path d="M132 17C132 17 132 21.0522 132 24.9064V32H133.094H134.5V24.6125V17H133.159C132.506 17 132 17 132 17Z" fill="white"/>
<path d="M141.981 17.6784C139.401 18.9774 138 21.4131 138 24.5307C138 28.9472 141.09 31.9999 145.549 31.9999C151.982 32.0324 155.327 24.5307 151.154 19.562C150.549 18.8151 149.466 17.9382 148.766 17.6135C146.918 16.7691 143.733 16.8016 141.981 17.6784ZM147.937 20.0166C150.963 22.0626 151.059 26.609 148.16 28.8173C146.854 29.7916 144.02 29.7591 142.65 28.7849C139.784 26.7065 139.943 21.7703 142.905 19.9192C144.37 19.0099 146.568 19.0749 147.937 20.0166Z" fill="white"/>
<path d="M157 24.5432V31.9986H158.473H160V26.8296V21.5709L163.895 26.8623C167.782 31.8598 168.043 32.0966 169.023 31.9986H170V24.5759V17H168.86H167V22.1915V27.3196L163.536 22.2895C159.812 17.5206 159.518 17.098 158.375 17H157V24.5432Z" fill="white"/>
</svg>
